<?xml version="1.0" standalone="no"?>
<!DOCTYPE svg PUBLIC "-//W3C//DTD SVG 20010904//EN"
 "http://www.w3.org/TR/2001/REC-SVG-20010904/DTD/svg10.dtd">
<svg version="1.0" xmlns="http://www.w3.org/2000/svg"
 width="2560.000000pt" height="2560.000000pt" viewBox="0 0 2560.000000 2560.000000"
 preserveAspectRatio="xMidYMid meet">
<metadata>
Created by potrace 1.11, written by Peter Selinger 2001-2013
</metadata>
<g transform="translate(0.000000,2560.000000) scale(0.100000,-0.100000)"
fill="#000000" stroke="none">
<path d="M6678 21195 c-2 -1 -50 -6 -108 -9 -58 -4 -121 -9 -140 -11 -19 -3
-60 -7 -90 -10 -62 -7 -97 -12 -190 -26 -36 -6 -74 -12 -85 -14 -56 -8 -210
-37 -215 -40 -4 -2 -22 -7 -41 -10 -211 -37 -592 -158 -892 -282 -439 -181
-938 -472 -1262 -735 -251 -203 -337 -280 -510 -454 -220 -222 -320 -338 -518
-604 -456 -610 -789 -1372 -931 -2130 -9 -47 -18 -95 -20 -106 -7 -36 -15 -87
-21 -140 -3 -28 -8 -61 -10 -75 -3 -13 -8 -53 -11 -89 -3 -36 -7 -76 -10 -90
-25 -146 -24 -804 1 -1020 3 -19 7 -60 10 -90 28 -259 110 -671 175 -885 37
-119 83 -263 89 -280 5 -11 23 -60 41 -110 18 -49 38 -103 45 -120 7 -16 34
-82 61 -145 60 -141 199 -420 279 -558 78 -135 283 -443 368 -555 507 -665
1143 -1192 1887 -1562 359 -179 870 -356 1247 -431 43 -9 98 -20 123 -25 84
-17 335 -55 425 -64 33 -3 69 -8 80 -10 131 -26 926 -26 1075 0 14 2 52 7 86
10 33 3 71 7 85 10 13 2 60 9 104 15 44 6 104 16 133 21 29 6 65 12 80 14 16
2 82 16 148 30 65 15 124 28 129 29 69 15 376 108 475 143 269 97 607 251 779
355 34 21 65 38 67 38 7 0 306 192 364 233 30 22 67 51 81 64 15 14 29 21 32
16 2 -4 3 -633 2 -1398 -2 -1449 -3 -1503 -50 -1735 -3 -14 -8 -41 -11 -60
-11 -57 -12 -61 -34 -155 -180 -765 -591 -1384 -1148 -1728 -251 -155 -613
-299 -887 -353 -11 -2 -42 -8 -70 -14 -27 -5 -66 -12 -85 -15 -19 -3 -42 -8
-50 -10 -8 -2 -35 -7 -60 -10 -25 -3 -61 -7 -80 -10 -94 -12 -216 -24 -335
-31 -71 -4 -519 -4 -585 0 -68 5 -215 16 -255 21 -121 13 -163 18 -180 21 -11
3 -38 7 -60 10 -22 2 -76 11 -120 19 -44 8 -91 17 -105 19 -14 2 -99 22 -190
44 -356 87 -719 231 -1008 399 -45 26 -92 52 -102 58 -11 5 -20 13 -20 17 0 5
-4 8 -10 8 -11 0 -139 87 -236 159 -120 91 -208 168 -343 301 -151 149 -261
277 -372 435 l-74 104 -20 -22 c-12 -12 -74 -83 -139 -157 -66 -74 -146 -166
-180 -204 -34 -39 -79 -90 -102 -115 -35 -39 -234 -265 -418 -475 -51 -59 -72
-82 -130 -146 -65 -72 -65 -62 0 -142 130 -162 361 -406 515 -544 125 -113
144 -130 219 -190 235 -191 496 -365 782 -523 66 -36 295 -151 302 -151 3 0
37 -15 78 -34 40 -18 105 -45 143 -61 39 -15 84 -33 100 -41 64 -29 428 -145
580 -184 153 -39 340 -82 415 -94 47 -8 88 -15 130 -22 19 -4 44 -8 55 -9 58
-8 113 -16 135 -20 14 -2 48 -7 75 -10 28 -3 68 -7 90 -10 22 -2 74 -7 115
-10 41 -4 93 -8 115 -11 238 -23 822 -23 1085 1 96 8 169 16 191 20 13 2 51 6
84 10 33 3 101 13 150 21 50 9 104 18 122 20 18 2 65 11 105 20 40 8 84 18 97
20 14 3 61 14 105 25 45 11 90 22 102 24 12 3 40 11 63 19 22 9 41 13 41 12 0
-7 326 105 440 151 378 153 821 424 1115 683 52 45 350 343 396 395 67 77 166
201 230 290 64 88 199 291 199 298 0 2 23 44 51 93 117 203 241 477 329 730
51 147 126 405 144 494 3 14 16 77 30 140 13 63 27 133 30 155 3 22 8 51 11
65 2 14 7 43 10 65 3 22 7 51 10 65 2 14 7 52 10 85 4 33 8 71 10 85 4 30 17
198 20 260 2 25 3 1029 4 2231 l1 2186 93 113 c50 62 107 133 126 159 19 25
37 48 41 51 35 28 596 784 772 1040 20 30 51 74 67 97 96 136 304 441 502 738
237 355 443 657 587 860 112 157 264 367 277 382 5 6 39 51 75 100 96 130 330
431 417 536 41 51 83 101 92 112 9 11 41 50 71 85 30 36 66 78 80 94 163 193
365 410 576 621 291 291 535 507 834 738 87 67 262 186 345 233 107 61 147 82
260 138 247 120 470 200 755 271 99 25 282 61 347 69 21 3 55 8 76 11 95 13
174 21 312 30 73 5 367 5 450 0 221 -13 417 -40 625 -86 143 -31 217 -51 289
-75 529 -179 938 -415 1367 -789 101 -88 309 -308 419 -442 6 -7 15 -18 21
-26 38 -45 160 -217 216 -302 109 -167 228 -390 303 -565 15 -36 31 -74 36
-85 34 -76 108 -297 140 -411 40 -148 91 -406 104 -524 4 -36 9 -76 11 -90 22
-162 22 -636 0 -770 -3 -14 -7 -52 -11 -85 -3 -33 -8 -67 -10 -75 -2 -8 -6
-32 -9 -52 -14 -94 -19 -120 -47 -238 -48 -209 -92 -351 -166 -540 -42 -107
-182 -403 -235 -495 -48 -83 -122 -200 -130 -203 -4 -2 -8 -8 -8 -12 0 -20
-192 -278 -295 -396 -96 -111 -322 -333 -430 -423 -690 -574 -1527 -875 -2430
-875 -114 0 -325 11 -390 19 -16 2 -52 7 -80 10 -82 11 -88 12 -135 20 -102
17 -133 23 -230 47 -47 11 -93 21 -103 24 -65 12 -236 68 -385 125 -172 66
-335 141 -474 219 -93 53 -363 229 -409 268 -13 11 -60 49 -104 84 -44 34 -87
70 -96 78 -9 8 -56 51 -104 95 -71 65 -255 248 -300 299 -6 6 -39 45 -75 86
-36 41 -71 81 -79 90 -55 58 -270 339 -391 510 -119 169 -247 343 -307 417 -6
8 -16 12 -21 9 -8 -5 -89 -115 -401 -550 -319 -443 -504 -699 -536 -741 -9
-11 -13 -25 -11 -31 10 -27 243 -333 296 -389 31 -33 100 -114 155 -180 214
-261 392 -447 675 -710 25 -23 77 -68 115 -100 39 -32 72 -61 75 -64 16 -19
292 -226 390 -292 115 -78 288 -189 295 -189 3 0 22 -11 43 -24 78 -51 319
-175 482 -249 184 -83 500 -197 685 -247 121 -32 266 -70 289 -75 400 -82 606
-111 936 -131 88 -5 468 -5 555 1 167 11 293 22 397 36 43 5 90 12 105 14 16
2 71 11 123 20 52 9 109 19 125 22 58 9 311 72 430 106 217 64 592 200 704
257 9 4 90 44 181 88 958 466 1775 1248 2312 2212 198 357 331 675 471 1135
26 85 74 284 101 415 34 171 43 224 61 373 3 23 8 58 11 77 3 19 7 58 9 85 2
28 7 95 12 150 14 190 8 646 -11 755 -3 14 -7 52 -11 85 -5 51 -29 215 -51
345 -41 246 -155 653 -269 960 -74 199 -247 575 -333 725 -9 17 -31 55 -49 85
-17 30 -38 66 -45 80 -46 85 -263 409 -352 525 -71 93 -275 340 -336 405 -137
148 -384 388 -480 466 -19 16 -37 31 -40 34 -13 15 -215 174 -300 236 -127 94
-307 214 -320 214 -5 0 -10 3 -10 8 0 4 -9 12 -20 17 -10 6 -63 36 -117 67
-156 90 -162 93 -288 157 -405 203 -844 359 -1245 442 -58 12 -112 22 -120 24
-15 2 -90 14 -125 21 -47 9 -225 34 -280 39 -33 3 -78 8 -100 10 -245 26 -785
26 -1015 0 -251 -28 -260 -30 -430 -59 -162 -27 -421 -86 -565 -127 -555 -161
-1047 -388 -1500 -693 -121 -81 -404 -294 -435 -326 -3 -3 -25 -21 -50 -40
-25 -19 -47 -37 -50 -40 -3 -3 -52 -45 -110 -94 -299 -255 -709 -654 -985
-961 -44 -48 -89 -98 -100 -109 -11 -12 -47 -53 -80 -91 -33 -39 -62 -72 -66
-75 -3 -3 -47 -54 -98 -115 -51 -60 -103 -121 -115 -135 -11 -14 -39 -48 -61
-75 -22 -28 -47 -59 -57 -70 -9 -11 -50 -63 -92 -115 -42 -52 -79 -99 -84
-105 -4 -5 -53 -69 -107 -140 -55 -72 -113 -148 -130 -169 -86 -112 -422 -577
-520 -719 -22 -32 -78 -113 -124 -180 -69 -100 -458 -683 -700 -1047 -31 -47
-60 -90 -66 -97 -5 -6 -44 -62 -85 -123 -70 -103 -358 -511 -407 -576 -357
-473 -555 -723 -740 -934 -12 -14 -31 -36 -42 -49 -11 -12 -51 -57 -88 -99
-37 -41 -76 -84 -86 -96 -117 -135 -450 -477 -577 -594 -63 -57 -131 -119
-150 -136 -19 -18 -80 -68 -135 -112 -55 -43 -102 -81 -105 -84 -13 -14 -155
-114 -235 -166 -124 -80 -365 -201 -515 -259 -69 -26 -134 -51 -145 -56 -61
-25 -376 -111 -450 -122 -16 -3 -41 -8 -55 -11 -28 -6 -60 -11 -170 -26 -41
-6 -88 -13 -105 -15 -174 -27 -779 -26 -918 1 -11 2 -41 6 -66 9 -25 3 -55 7
-66 9 -11 2 -40 7 -65 10 -51 7 -84 13 -108 20 -9 3 -33 7 -52 10 -155 23
-579 155 -748 232 -29 13 -55 24 -58 24 -16 0 -315 156 -409 214 -446 272
-835 647 -1132 1092 -130 195 -268 446 -345 629 -104 248 -218 619 -243 790
-4 22 -8 47 -10 55 -3 8 -7 33 -10 55 -3 22 -8 51 -10 65 -3 14 -7 45 -10 70
-3 25 -8 56 -10 70 -24 144 -25 712 -1 837 2 10 7 46 11 78 4 33 9 69 11 80 3
11 7 36 10 55 5 32 38 200 49 246 82 361 275 804 503 1154 55 85 213 301 242
330 8 9 33 38 54 65 59 74 348 361 446 441 312 259 616 444 985 602 116 50
401 149 480 167 11 2 38 9 60 15 90 23 311 67 384 75 25 3 60 8 76 10 17 3 59
8 95 11 36 3 81 7 100 10 45 5 386 5 465 0 77 -5 194 -16 220 -21 11 -2 47 -7
80 -10 67 -7 88 -10 125 -19 14 -3 42 -8 62 -11 177 -24 598 -149 773 -229 17
-8 59 -26 95 -41 173 -72 458 -233 635 -358 302 -214 467 -368 725 -677 105
-126 418 -539 485 -640 49 -74 174 -240 180 -241 6 0 27 27 100 131 21 30 42
59 47 65 5 5 44 60 87 120 44 61 98 135 120 165 22 30 103 143 180 250 77 107
159 221 183 254 24 32 57 78 73 101 17 24 59 82 93 130 35 49 66 93 68 99 3 9
-63 103 -168 237 -111 142 -241 305 -247 309 -3 3 -23 26 -44 52 -21 26 -43
53 -50 60 -7 7 -41 47 -77 88 -69 80 -408 421 -452 455 -14 11 -47 39 -74 62
-524 452 -1273 852 -1969 1052 -77 22 -295 77 -335 85 -14 2 -56 11 -95 19
-65 14 -105 21 -180 33 -16 3 -55 9 -85 14 -100 17 -175 26 -285 35 -44 4 -93
9 -110 11 -33 5 -641 14 -647 9z"/>
</g>
</svg>
